<?xml version="1.0" encoding="utf-8"?>
<svg version="1.2" baseProfile="tiny-ps" xmlns="http://www.w3.org/2000/svg" width="2880px" height="2880px" viewBox="0 0 2880 2880" preserveAspectRatio="xMidYMid meet">
 <g fill="#a5cb64">
  <path d="M0 1440 l0 -1440 1440 0 1440 0 0 1440 0 1440 -1440 0 -1440 0 0 -1440z m926.72 945 c27 -7.03 72.56 -28.41 101.53 -47.81 l21.94 -14.63 19.69 1.69 c10.97 0.84 28.13 3.38 38.25 5.63 52.59 12.38 164.81 13.22 234.84 1.97 181.41 -29.25 344.53 -108.84 480.09 -234 31.50 -29.25 31.50 -29.25 79.03 -18.84 41.06 8.72 106.59 8.72 148.22 -0.28 35.72 -7.59 80.72 -22.22 103.22 -33.47 24.75 -12.66 64.69 -39.94 85.22 -58.22 51.47 -45.84 81.84 -102.09 82.13 -151.59 0 -28.41 -10.69 -58.22 -28.69 -78.47 -12.66 -14.34 -11.25 -22.78 7.59 -51.75 57.38 -87.75 93.38 -194.34 102.09 -301.50 7.03 -86.34 -13.50 -196.31 -52.59 -281.81 -6.47 -14.34 -9.28 -24.47 -8.72 -30.94 l0.84 -9.56 26.72 -1.69 c56.53 -3.94 90 -30.94 105.47 -85.22 4.22 -13.78 4.22 -18.56 1.41 -28.13 -7.31 -25.03 -32.63 -59.91 -51.47 -71.44 -5.06 -3.09 -20.81 -9.84 -35.44 -14.63 -40.50 -14.06 -64.13 -10.13 -100.97 16.59 -12.66 9.56 -28.69 31.78 -28.69 40.22 0 3.94 -2.25 5.06 -10.41 5.06 -9.56 -0.28 -12.09 -1.97 -21.94 -14.63 -29.25 -37.41 -93.66 -93.94 -153.28 -135 -56.25 -38.53 -139.22 -78.19 -212.06 -101.25 l-38.25 -12.09 0 -9.84 c0 -8.44 1.97 -11.25 12.94 -19.69 35.72 -27.28 44.44 -37.97 47.81 -58.78 3.66 -23.06 -21.94 -57.66 -55.13 -74.53 -18 -9.28 -52.03 -16.59 -67.50 -14.34 -46.97 6.47 -88.03 32.91 -104.34 67.50 -9.84 20.81 -10.13 30.09 -1.13 48.09 3.94 7.59 7.03 17.44 7.03 21.94 l0 8.16 -25.88 -2.53 c-48.94 -4.78 -131.63 -2.53 -176.63 4.22 -47.81 7.31 -113.63 23.63 -153.28 37.97 -138.94 50.63 -278.72 159.47 -360.28 281.53 -21.66 32.63 -51.75 92.53 -64.41 127.97 l-7.31 21.38 -18.28 3.38 c-87.19 16.59 -160.59 98.72 -172.69 192.94 -2.25 18.56 -1.97 26.16 1.69 41.06 9 37.69 9 37.13 -7.31 48.94 -20.53 14.91 -62.16 55.41 -82.41 80.44 -42.47 52.59 -84.94 129.94 -100.13 182.81 -16.88 57.94 -21.94 115.59 -12.94 145.13 2.25 7.59 4.22 18.84 4.22 25.31 0 10.41 -0.84 11.53 -12.09 17.16 -19.69 9.56 -54.56 39.38 -68.06 58.50 -15.47 21.66 -27.84 48.09 -32.06 68.91 -2.53 12.38 -2.53 18.28 0.84 28.97 12.66 42.19 53.16 75.94 91.41 75.94 18.28 0.28 56.81 -12.09 92.25 -29.25 16.03 -7.59 26.72 -10.97 35.44 -10.97 11.53 0 13.78 1.41 33.47 20.81 45 44.16 114.19 93.38 169.31 120.09 27.56 13.50 29.81 15.19 29.81 22.50 0 4.78 -3.66 12.94 -9 20.25 -15.75 20.25 -28.41 51.47 -28.69 69.19 -0.28 37.41 33.19 72.56 81.84 86.06 19.13 5.34 30.66 5.06 55.69 -1.41z"/>
 </g>
 <g fill="#fffffe">
  <path d="M853.03 2343.94 c-15.19 -7.59 -20.53 -19.41 -20.53 -45 0 -25.88 5.63 -40.22 26.16 -67.22 14.34 -19.13 21.94 -27.28 45.28 -48.66 13.50 -12.66 15.75 -15.47 12.66 -19.13 -9.56 -11.53 -22.22 -9.84 -42.75 5.63 -5.34 4.22 -12.94 7.31 -17.16 7.31 -8.44 0 -65.25 -30.94 -103.78 -56.81 -61.03 -40.78 -113.06 -86.63 -122.91 -108.28 -2.81 -6.47 -8.44 -13.78 -12.38 -16.31 -7.03 -4.78 -7.88 -4.50 -23.63 4.78 -17.72 10.69 -53.72 26.44 -88.88 39.38 -19.69 7.31 -25.88 8.16 -44.72 7.31 -21.38 -0.84 -22.50 -1.41 -31.50 -11.25 -38.25 -41.63 -1.69 -122.63 71.72 -157.78 14.63 -7.03 29.53 -15.75 33.19 -19.69 l6.47 -6.75 -7.31 -9 c-9.84 -11.25 -13.78 -40.78 -11.53 -81.84 6.19 -114.47 57.09 -222.19 146.25 -309.94 42.75 -42.19 82.13 -69.75 147.66 -103.50 22.50 -11.53 40.78 -22.22 40.22 -23.91 -2.81 -10.13 -66.38 9 -102.66 30.94 -9.28 5.63 -19.97 9.84 -25.03 9.84 l-8.72 0 1.69 -31.78 c3.38 -54.56 16.03 -91.41 43.31 -123.19 24.19 -28.41 67.22 -55.97 87.19 -55.97 l10.13 0 -1.69 19.13 c-1.13 10.41 -2.53 27 -3.66 37.13 -2.25 22.78 5.34 53.44 11.81 46.97 1.13 -1.13 5.63 -19.69 10.13 -41.63 30.94 -151.59 117.56 -285.47 248.34 -383.63 98.44 -73.97 201.09 -117.84 327.66 -139.50 44.72 -7.59 156.66 -10.41 210.38 -5.63 209.81 19.69 395.44 109.97 523.41 254.25 98.44 111.09 151.31 242.44 159.19 397.13 4.50 83.53 -16.31 192.09 -53.16 276.47 -36.84 85.22 -105.47 174.66 -158.06 206.72 -22.50 13.50 -67.78 28.41 -109.41 35.72 -18.56 3.38 -39.94 7.59 -47.53 9.28 -15.19 3.66 -22.78 11.53 -15.75 16.03 15.19 10.13 42.47 9.84 93.66 -0.28 64.41 -12.94 120.66 -41.91 169.03 -86.91 14.06 -13.22 19.69 -16.88 26.72 -16.88 8.16 0 9.56 1.41 14.91 13.22 5.06 11.53 5.63 16.88 4.50 46.97 -1.13 26.44 -2.81 37.41 -7.59 49.22 -30.09 74.25 -120.09 132.47 -232.31 150.75 -55.13 9 -125.72 7.88 -170.72 -2.53 l-16.03 -3.66 -14.91 15.19 c-22.50 23.06 -73.13 66.38 -105.19 89.72 -94.78 69.19 -208.69 121.22 -318.94 145.41 -115.03 25.59 -249.75 27.84 -345.94 5.91 l-18.84 -4.22 -25.03 15.75 c-29.81 18.84 -69.75 38.53 -90.84 44.72 -20.25 5.91 -60.47 5.91 -72.56 0z m833.91 -1062.84 c12.66 -5.63 23.06 -14.91 23.06 -21.09 0 -2.53 -2.53 -7.03 -5.91 -10.13 -5.63 -5.06 -6.19 -5.06 -14.34 -0.28 -5.34 3.09 -14.34 4.78 -24.75 4.78 -13.22 0 -18 -1.41 -24.47 -6.75 -9.84 -8.44 -14.91 -23.34 -14.91 -44.72 0 -25.03 2.53 -28.69 28.69 -41.06 24.75 -11.53 37.13 -21.94 35.44 -30.09 -1.41 -7.88 -18.56 -18 -30.66 -18 -8.16 0 -10.97 -1.41 -12.38 -5.63 -1.13 -3.09 -5.06 -7.88 -8.72 -10.41 -5.63 -3.66 -8.44 -3.94 -14.06 -1.13 -8.72 3.94 -17.72 23.34 -18 37.69 0 12.09 -5.06 23.34 -13.78 31.22 -4.22 3.94 -11.25 5.63 -26.16 6.47 -17.16 1.13 -21.94 0.28 -29.81 -4.78 -11.53 -7.03 -18 -21.66 -16.88 -38.53 0.28 -9.84 -0.84 -13.78 -4.78 -16.59 -7.88 -5.91 -11.25 -4.78 -19.41 4.78 -9.28 10.97 -9.28 22.50 0 41.34 13.50 27 44.16 42.19 78.19 38.53 l18 -1.97 1.97 12.09 c5.63 34.59 28.69 63.28 59.63 74.53 14.06 4.78 21.38 4.78 34.03 -0.28z m210.38 -185.63 c7.03 -7.03 7.03 -7.03 1.97 -15.75 -6.75 -11.53 -28.41 -30.66 -34.88 -30.66 -2.81 0 -8.44 3.09 -12.66 6.75 -7.31 6.19 -7.59 7.03 -4.22 15.19 5.34 12.66 26.72 31.50 35.44 31.50 3.94 0 10.41 -3.09 14.34 -7.03z m-254.81 -158.63 c5.63 -2.81 10.13 -7.59 10.69 -11.25 1.97 -13.22 -48.38 -25.31 -66.38 -16.03 -15.47 7.88 -9.84 20.53 12.66 28.69 15.19 5.34 31.50 4.78 43.03 -1.41z"/>
  <path d="M2294.44 1018.13 c-22.22 -35.72 -23.06 -41.06 -10.41 -69.47 10.13 -23.06 16.59 -30.09 34.03 -39.09 10.97 -5.63 17.44 -6.75 37.13 -6.75 21.94 0 24.47 0.56 37.13 9.28 18.56 12.38 26.44 28.41 28.41 57.38 1.97 27.28 -1.69 41.34 -14.34 56.25 -14.91 17.16 -31.78 23.34 -65.25 23.06 l-27.84 0 -18.84 -30.66z"/>
  <path d="M1732.50 658.97 c-13.22 -2.25 -26.72 -4.78 -30.38 -5.34 -10.41 -1.97 -20.25 -26.16 -20.25 -49.78 0 -11.25 1.69 -22.22 3.94 -26.72 6.75 -12.66 24.75 -27.84 42.47 -36.28 14.63 -6.75 20.53 -7.59 43.59 -7.59 21.94 -0.28 28.69 0.84 37.97 5.91 14.63 7.59 23.91 24.19 25.88 46.13 l1.69 16.88 -25.88 24.75 c-17.16 16.31 -25.59 26.44 -25.59 30.66 0 5.63 -1.41 6.19 -14.63 5.91 -8.16 -0.28 -25.59 -2.25 -38.81 -4.50z"/>
 </g>
 <g fill="#000000">
  <path d="M862.59 2394.84 c-34.31 -9.56 -62.72 -30.66 -75.66 -56.81 -5.34 -10.97 -6.47 -18 -6.47 -37.41 0 -21.38 1.13 -26.16 9.84 -45 5.34 -11.53 13.78 -26.44 18.84 -32.63 l8.72 -11.81 -29.53 -14.34 c-54.84 -26.72 -124.03 -75.94 -169.03 -120.09 -11.53 -11.53 -22.78 -20.81 -25.03 -20.81 -2.25 0 -14.34 5.06 -27 10.97 -42.19 20.53 -73.41 29.53 -100.41 29.81 -21.38 0 -25.88 -0.84 -42.47 -9 -32.34 -16.03 -56.81 -48.94 -60.75 -81.56 -3.09 -27.56 10.13 -66.94 34.31 -100.69 13.50 -19.13 48.38 -48.94 68.06 -58.50 13.50 -6.75 13.50 -6.75 7.88 -25.59 -5.63 -18.28 -5.63 -74.81 0 -107.44 13.50 -78.47 54.56 -165.09 113.06 -237.38 19.97 -24.75 61.59 -65.53 81.84 -79.88 l14.06 -10.13 -3.66 -10.69 c-12.66 -36.56 -4.78 -98.44 18.28 -144 30.94 -60.75 89.72 -107.16 150.19 -118.69 l18.28 -3.38 7.31 -21.38 c12.66 -35.44 42.75 -95.34 64.41 -127.97 68.06 -101.81 174.38 -193.78 289.97 -250.59 51.19 -25.03 85.22 -37.69 140.63 -51.75 70.59 -18 113.63 -23.63 188.44 -23.63 35.72 -0.28 71.72 0.56 80.44 1.69 l15.75 2.25 -6.47 -13.22 c-5.06 -9.56 -6.75 -17.72 -6.75 -30.09 0 -65.25 83.81 -116.16 162 -98.72 27 5.91 43.03 13.78 62.16 30.66 25.31 22.78 34.31 50.91 25.88 81.84 -3.38 11.81 -20.53 30.38 -45.56 49.22 -7.31 5.34 -13.22 10.41 -13.22 11.25 0 0.84 17.16 7.03 38.25 13.50 72.84 23.06 155.81 62.72 212.06 101.25 59.63 41.06 124.03 97.59 153.28 135 12.09 15.47 15.47 17.44 15.47 9.56 0 -8.44 16.03 -30.66 28.69 -40.22 25.88 -18.56 38.25 -23.06 66.94 -24.47 24.75 -0.84 28.69 -0.28 54.28 9 31.22 10.97 42.19 18.56 58.22 38.53 25.03 31.78 32.91 61.03 23.91 91.41 -15.47 54.28 -49.50 81.56 -104.91 84.94 -14.34 0.56 -26.72 2.25 -27.28 3.38 -0.84 1.13 2.81 11.53 8.16 22.78 39.66 86.34 59.91 199.13 52.59 293.34 -8.44 110.53 -44.16 217.13 -102.38 306.28 l-16.31 25.03 9 10.13 c19.97 22.78 32.91 66.38 29.25 98.72 -8.16 70.59 -50.06 130.50 -126.56 181.13 -33.47 21.94 -52.31 31.22 -86.63 42.75 -52.88 17.72 -81.56 22.22 -139.78 22.22 -44.44 0.28 -56.81 -0.84 -84.94 -6.47 l-32.63 -6.75 -27.84 25.59 c-135.84 125.44 -298.13 204.75 -480.38 234.28 -70.59 11.53 -196.88 10.41 -253.13 -1.97 -39.38 -8.72 -37.41 -9 -61.59 7.31 -28.97 19.41 -74.53 40.78 -101.53 47.81 -24.75 6.47 -52.59 7.03 -72.56 1.41z m54.56 -59.34 c21.66 -6.47 61.31 -25.88 93.38 -46.13 l27.56 -17.44 24.47 5.91 c118.97 27.84 270 19.41 402.75 -22.78 129.94 -41.06 247.50 -111.66 347.91 -208.41 29.53 -28.41 22.22 -26.72 71.16 -17.16 32.34 6.19 102.09 6.47 137.81 0.28 77.91 -13.50 144.84 -43.88 186.75 -84.94 37.13 -36.28 52.03 -66.09 54.28 -107.16 1.41 -21.66 0.84 -27.28 -4.50 -38.81 l-5.91 -13.50 -18.28 17.16 c-64.13 59.63 -145.97 93.09 -232.03 94.22 -36.28 0.28 -47.81 -2.81 -53.16 -14.34 -2.81 -6.47 -2.53 -8.72 1.97 -14.63 5.91 -8.16 14.91 -10.69 66.66 -19.97 41.63 -7.31 86.91 -22.22 109.41 -35.72 38.53 -23.34 95.34 -89.16 129.38 -149.34 57.66 -101.53 88.59 -231.75 80.44 -338.06 -14.06 -186.47 -99.28 -343.97 -251.72 -464.63 -80.44 -63.56 -190.97 -117 -298.41 -144 -124.88 -31.22 -270.56 -32.34 -387.84 -2.81 -98.72 24.75 -182.53 64.69 -264.38 126.28 -131.06 98.44 -217.41 232.03 -248.34 383.63 -8.44 41.91 -12.66 50.06 -22.78 46.69 -14.34 -4.50 -21.09 -43.59 -14.34 -84.66 1.69 -11.81 2.81 -21.94 1.97 -22.50 -2.25 -2.25 -38.25 17.72 -52.59 29.25 -42.19 33.47 -63.84 77.34 -68.91 139.22 l-1.97 24.75 16.31 -10.13 c21.94 -13.22 68.34 -31.22 91.69 -35.44 16.59 -3.09 19.69 -2.81 25.88 1.41 8.44 5.34 9.56 15.75 2.53 21.94 -2.81 2.53 -20.81 12.38 -40.22 21.94 -114.47 57.09 -196.31 136.69 -248.91 241.59 -41.91 84.09 -59.63 206.16 -34.03 236.81 9.84 11.81 9.84 24.47 -0.28 34.03 -4.50 3.94 -18.84 12.38 -32.34 18.84 -29.53 14.06 -55.13 36.84 -70.31 62.16 -19.41 32.91 -19.69 57.66 -0.84 78.19 9 9.84 10.41 10.41 27.28 10.41 14.91 0 23.63 -2.53 54.28 -14.91 20.25 -8.16 43.59 -18.56 52.03 -23.06 36.56 -20.25 38.25 -20.53 50.06 -14.91 7.03 3.38 12.38 9 16.88 17.72 16.59 33.47 97.31 97.31 183.94 145.97 l34.59 19.41 9.28 -6.75 c26.44 -20.25 54.84 -19.97 62.72 0.84 3.38 9.28 -0.84 16.31 -21.38 34.59 -41.34 37.41 -65.81 75.09 -66.09 102.38 0 16.59 7.59 30.09 20.53 36.56 11.53 5.63 36.28 5.63 55.69 0z m1461.38 -1302.75 c25.59 -13.50 37.41 -37.69 32.34 -67.22 -5.63 -33.47 -27 -54.28 -55.97 -54.28 -28.69 0 -48.94 14.91 -62.72 46.41 l-9 20.53 19.13 30.66 18.84 30.38 22.78 0 c17.72 -0.28 25.31 -1.69 34.59 -6.47z m-601.03 -383.63 c0 -4.22 8.44 -14.34 25.59 -30.66 24.75 -23.63 25.59 -24.75 23.63 -34.03 -3.38 -16.31 -13.22 -30.66 -25.31 -36.84 -25.31 -12.94 -67.50 -3.94 -92.25 19.97 -13.78 13.22 -18.84 23.06 -18.84 36.28 0 15.19 12.09 39.66 20.25 41.34 16.03 3.09 54.84 9.28 60.75 9.84 4.50 0.28 6.19 -1.13 6.19 -5.91z"/>
  <path d="M1644.47 1289.81 c-30.66 -10.97 -54 -39.94 -59.34 -73.41 l-1.97 -11.25 -18 0.84 c-49.22 2.53 -86.63 -28.13 -86.63 -71.44 0 -31.22 26.72 -48.38 45.84 -29.25 4.50 4.50 5.63 9 5.06 20.81 -1.13 25.31 14.91 40.50 38.53 37.13 17.72 -2.81 29.53 -17.72 29.53 -37.41 0 -13.50 9 -33.19 16.88 -37.41 14.34 -7.59 36.84 -1.41 40.78 11.25 1.41 4.22 4.22 5.63 11.53 5.63 18.84 0 34.88 13.22 34.88 28.41 0 12.38 -13.22 24.75 -39.09 37.41 -22.50 10.69 -24.47 12.38 -26.72 22.22 -5.91 23.63 10.41 52.59 29.25 52.59 4.50 0 12.38 -2.53 17.44 -5.63 13.50 -8.16 22.78 -7.31 31.50 3.09 25.03 29.53 -24.19 62.44 -69.47 46.41z"/>
  <path d="M1868.91 1109.81 c-11.25 -4.78 -28.13 -23.91 -32.06 -36 -4.22 -12.94 -0.28 -23.06 11.53 -30.38 12.94 -7.88 21.94 -7.03 35.44 2.81 11.81 8.44 27 27 30.09 36.84 2.53 7.31 -5.63 21.38 -15.47 26.44 -9.84 5.06 -18.28 5.34 -29.53 0.28z"/>
  <path d="M1590.47 946.41 c-21.38 -7.59 -30.66 -28.41 -18.28 -40.78 7.59 -7.59 16.88 -9.56 42.19 -7.59 27.56 1.69 46.97 9.84 49.50 20.53 5.06 19.97 -11.25 32.06 -42.47 32.06 -10.69 -0.28 -24.75 -1.97 -30.94 -4.22z"/>
 </g>
</svg>